<?xml version="1.0" encoding="utf-8"?>
<!-- Generator: Adobe Illustrator 22.1.0, SVG Export Plug-In . SVG Version: 6.00 Build 0)  -->
<svg version="1.1" id="Layer_1" xmlns="http://www.w3.org/2000/svg" xmlns:xlink="http://www.w3.org/1999/xlink" x="0px" y="0px"
	 viewBox="0 0 612 792" style="enable-background:new 0 0 612 792;" xml:space="preserve">
<style type="text/css">
	.st0{fill:#C79028;}
	.st1{fill:#FFFFFF;}
	.st2{fill:none;}
</style>
<path class="st0" d="M15.7,516.7c0,0-6.7-134.5,94.4-190.7c100.9-56.1,87.2-104.4,87.2-104.4s72.5,204.3-5.5,280
	C139.9,552,15.7,516.7,15.7,516.7z"/>
<path class="st1" d="M138.9,487.8h-24.1l-1.8-19.3H98.7l-1.8,19.3h-20l17.8-138.4h25.8L138.9,487.8z M110.6,449.2l-4.3-55.1
	l-5.6,55.1H110.6z"/>
<path class="st1" d="M220,458.8c0,22-11.2,29-30.1,29H160V349.4h29.4c20,0,30.6,7.6,30.6,31.4V458.8z M196,378.3
	c0-7.9-2.3-9.7-7.4-9.7h-4.7v100.2h4.3c5.8,0,7.7-2.3,7.7-8.8L196,378.3L196,378.3z"/>
<path class="st1" d="M299.2,349.4l-16.9,138.7h-28.5l-17.3-138.7h24.7l7.6,90.5l8.5-90.5L299.2,349.4L299.2,349.4z"/>
<path class="st1" d="M368.2,487.8h-48.6V349.4H368v19.1h-24.5v38.4h20.4v19.5h-20.4v42.3h24.7V487.8z"/>
<path class="st1" d="M426.2,488.2c-1.1-2.5-1.6-5.4-1.8-8.3c-0.4-12.1-0.4-16.6-0.5-25.4c-0.4-20.7-3.2-22.9-6.1-22.9h-3.4v56.6h-24
	V349.4h29.9c19.3,0,29.6,11,29.6,36.4c0,19.3-1.6,29.6-13.7,35.5c10.4,6.7,11.5,22.9,11.5,31.7v10.4c0,13,0.7,18,2.3,24.7h-23.8
	V488.2z M417.6,368.5h-3.2v43.8h3.1c5.4,0,9-4.3,9-22.9C426.4,371.4,422.8,368.5,417.6,368.5z"/>
<path class="st1" d="M524.6,368.5h-18.9v119.6h-24V368.5H463v-19.1h61.6V368.5z"/>
<path class="st1" d="M595,487.8h-48.6V349.4h48.5v19.1h-24.5v38.4h20.4v19.5h-20.4v42.3H595V487.8z"/>
<rect x="-155.6" y="137.9" class="st2" width="84.3" height="53"/>
<rect x="-155.6" y="43.3" class="st2" width="45.8" height="52.4"/>
</svg>
