<?xml version="1.0" encoding="utf-8"?>
<!-- Generator: Adobe Illustrator 22.1.0, SVG Export Plug-In . SVG Version: 6.00 Build 0)  -->
<svg version="1.1" id="Layer_1" xmlns="http://www.w3.org/2000/svg" xmlns:xlink="http://www.w3.org/1999/xlink" x="0px" y="0px"
	 viewBox="0 0 579.4 307.1" style="enable-background:new 0 0 579.4 307.1;" xml:space="preserve">
<style type="text/css">
	.st0{fill:#C79028;}
	.st1{fill:#FFFFFF;}
	.st2{fill:none;}
</style>
<path class="st0" d="M0.1,295.1c0,0-6.7-134.5,94.4-190.7C195.4,48.3,181.7,0,181.7,0s72.5,204.3-5.5,280
	C124.3,330.4,0.1,295.1,0.1,295.1z"/>
<path class="st1" d="M123.3,266.2H99.2l-1.8-19.3H83.1l-1.8,19.3h-20l17.8-138.4h25.8L123.3,266.2z M95,227.6l-4.3-55.1l-5.6,55.1
	H95z"/>
<path class="st1" d="M204.4,237.2c0,22-11.2,29-30.1,29h-29.9V127.8h29.4c20,0,30.6,7.6,30.6,31.4V237.2z M180.4,156.7
	c0-7.9-2.3-9.7-7.4-9.7h-4.7v100.2h4.3c5.8,0,7.7-2.3,7.7-8.8L180.4,156.7L180.4,156.7z"/>
<path class="st1" d="M283.6,127.8l-16.9,138.7h-28.5l-17.3-138.7h24.7l7.6,90.5l8.5-90.5L283.6,127.8L283.6,127.8z"/>
<path class="st1" d="M352.6,266.2H304V127.8h48.4v19.1h-24.5v38.4h20.4v19.5h-20.4v42.3h24.7V266.2z"/>
<path class="st1" d="M410.6,266.6c-1.1-2.5-1.6-5.4-1.8-8.3c-0.4-12.1-0.4-16.6-0.5-25.4c-0.4-20.7-3.2-22.9-6.1-22.9h-3.4v56.6h-24
	V127.8h29.9c19.3,0,29.6,11,29.6,36.4c0,19.3-1.6,29.6-13.7,35.5c10.4,6.7,11.5,22.9,11.5,31.7v10.4c0,13,0.7,18,2.3,24.7h-23.8
	V266.6z M402,146.9h-3.2v43.8h3.1c5.4,0,9-4.3,9-22.9C410.8,149.8,407.2,146.9,402,146.9z"/>
<path class="st1" d="M509,146.9h-18.9v119.6h-24V146.9h-18.7v-19.1H509V146.9z"/>
<path class="st1" d="M579.4,266.2h-48.6V127.8h48.5v19.1h-24.5v38.4h20.4v19.5h-20.4v42.3h24.6V266.2z"/>
<rect x="-171.2" y="-83.7" class="st2" width="84.3" height="53"/>
<rect x="-171.2" y="-178.3" class="st2" width="45.8" height="52.4"/>
</svg>
